<svg xmlns="http://www.w3.org/2000/svg" width="16" height="16" id="volume" fill="#FFFFFF">
  <path fill-rule="evenodd" d="M8.484 2.31a.5.5 0 0 0-.285.102L3.432 6.008H1.5a.5.5 0 0 0-.5.5v3.697a.5.5 0 0 0 .5.5h1.932l4.767 3.596A.5.5 0 0 0 9 13.902V2.811a.5.5 0 0 0-.516-.5zM8 3.815v9.084L3.9 9.807a.5.5 0 0 0-.3-.102H2V7.008h1.6a.5.5 0 0 0 .3-.102L8 3.814zm4.277.27a.5.5 0 0 0-.256.93c1.27.811 1.99 2.083 1.979 3.418-.011 1.335-.751 2.597-2.035 3.392a.5.5 0 0 0-.242.463.5.5 0 0 0 .77.387c1.542-.957 2.493-2.533 2.507-4.235.014-1.7-.911-3.29-2.44-4.267a.5.5 0 0 0-.283-.088zm-1.771 1.273a.5.5 0 0 0-.143.98C11.346 6.638 12 7.51 12 8.495c0 .985-.656 1.857-1.639 2.154a.5.5 0 0 0-.361.487.5.5 0 0 0 .652.47c1.389-.42 2.348-1.68 2.348-3.11 0-1.431-.958-2.693-2.346-3.114a.5.5 0 0 0-.148-.024z" color="#fff" font-family="sans-serif" font-weight="400" overflow="visible" style="line-height:normal;text-indent:0;text-align:start;text-decoration-line:none;text-decoration-style:solid;text-decoration-color:#000;text-transform:none;block-progression:tb;white-space:normal;isolation:auto;mix-blend-mode:normal;solid-color:#fff;solid-opacity:1"></path>
</svg>
