<svg xmlns="http://www.w3.org/2000/svg" width="16" height="16" id="volume">
  <path fill="#FFFFFF" fill-rule="evenodd" d="M8.422 2.336a.5.5 0 0 0-.285.102L3.412 6.002H1.498a.5.5 0 0 0-.5.5v3.666a.5.5 0 0 0 .5.5h1.914l4.725 3.566a.5.5 0 0 0 .8-.398v-11a.5.5 0 0 0-.515-.5zM7.937 3.84v8.994L3.881 9.771a.5.5 0 0 0-.3-.101H1.997V7.004H3.58a.5.5 0 0 0 .3-.102L7.938 3.84zm2.565 1.957a.5.5 0 0 0-.348.857l1.643 1.643-1.643 1.64a.5.5 0 1 0 .707.708l1.643-1.641 1.64 1.64a.5.5 0 1 0 .708-.707l-1.641-1.64 1.64-1.643a.5.5 0 0 0-.363-.857.5.5 0 0 0-.343.15L12.504 7.59 10.86 5.947a.5.5 0 0 0-.359-.15z" color="#000" font-family="sans-serif" font-weight="400" overflow="visible" style="line-height:normal;text-indent:0;text-align:start;text-decoration-line:none;text-decoration-style:solid;text-decoration-color:#000;text-transform:none;block-progression:tb;white-space:normal;isolation:auto;mix-blend-mode:normal;solid-color:#000;solid-opacity:1"></path>
</svg>
